<svg width="44" height="44" viewBox="0 0 44 44" fill="none" xmlns="http://www.w3.org/2000/svg">
<path d="M10.083 24.64V34.6133C10.083 35.0509 10.2568 35.4706 10.5663 35.7801C10.8757 36.0895 11.2954 36.2633 11.733 36.2633H13.5663C14.0039 36.2633 14.4236 36.0895 14.7331 35.7801C15.0425 35.4706 15.2163 35.0509 15.2163 34.6133V24.035C15.226 23.9375 15.226 23.8392 15.2163 23.7417C13.551 24.2607 11.8256 24.5626 10.083 24.64Z" fill="#FF510B"/>
<path d="M6.06788 14.9234C5.4714 14.4914 4.74384 14.2791 4.00867 14.3226C3.2735 14.366 2.576 14.6625 2.03455 15.1617C1.09518 15.8484 0.427766 16.8441 0.149494 17.974C-0.128778 19.1038 -0.000119726 20.2956 0.512879 21.34C0.988328 22.588 1.90163 23.6204 3.08235 24.2445C4.26307 24.8686 5.63053 25.0418 6.92954 24.7317C7.81543 24.5661 8.60194 24.0619 9.1222 23.326C9.64246 22.5901 9.85553 21.6804 9.71621 20.79C9.57925 19.6034 9.18104 18.4618 8.55022 17.4474C7.91939 16.433 7.07163 15.571 6.06788 14.9234ZM3.66621 22.88C3.04112 22.6541 2.49517 22.2514 2.09481 21.7208C1.69445 21.1903 1.45695 20.5548 1.41121 19.8917C1.41121 19.4884 1.41121 19.085 1.86955 19.0484C2.63954 19.0484 4.83955 21.9267 4.61954 22.5134C4.39955 23.1 4.06955 23.0267 3.66621 22.88Z" fill="#FF510B"/>
<path d="M14.5191 7.75501C9.60576 7.40668 6.12242 11.4217 5.35242 12.595C5.32983 12.6257 5.31559 12.6617 5.3111 12.6995C5.30661 12.7374 5.31203 12.7757 5.32681 12.8108C5.34159 12.846 5.36525 12.8766 5.39544 12.8999C5.42564 12.9231 5.46136 12.9381 5.49909 12.9433C7.21658 13.6018 8.69627 14.7616 9.74581 16.2722C10.7953 17.7827 11.3662 19.5741 11.3841 21.4133C11.3756 21.8309 11.3388 22.2474 11.2741 22.66C11.2741 22.66 11.2741 22.88 11.4574 22.8433C18.6624 22.4033 20.2208 17.5817 20.6241 15.675C20.8059 14.7462 20.7876 13.7894 20.5703 12.8683C20.353 11.9472 19.9417 11.083 19.3639 10.3334C18.7861 9.58388 18.0551 8.96617 17.2197 8.52155C16.3842 8.07692 15.4635 7.81559 14.5191 7.75501ZM17.5074 13.255L15.1974 15.0883C14.9541 15.1989 14.6802 15.2231 14.4213 15.1569C14.1623 15.0907 13.9337 14.938 13.7733 14.7242C13.6129 14.5103 13.5303 14.2481 13.5393 13.9809C13.5482 13.7138 13.6481 13.4577 13.8224 13.255L16.1508 11.4217C16.3932 11.3193 16.663 11.3015 16.9168 11.3709C17.1706 11.4404 17.3937 11.5932 17.5502 11.8047C17.7068 12.0162 17.7876 12.2742 17.7799 12.5373C17.7721 12.8003 17.6762 13.0531 17.5074 13.255Z" fill="#FF510B"/>
<path d="M28.7275 24.035V34.6133C28.7275 35.0509 28.9014 35.4706 29.2108 35.7801C29.5202 36.0895 29.9399 36.2633 30.3775 36.2633H32.2109C32.6485 36.2633 33.0682 36.0895 33.3776 35.7801C33.687 35.4706 33.8609 35.0509 33.8609 34.6133V24.64C32.1284 24.5908 30.4094 24.3197 28.7459 23.8333C28.7352 23.9001 28.7291 23.9674 28.7275 24.035Z" fill="#FF510B"/>
<path d="M41.9643 15.1617C41.4229 14.6625 40.7254 14.366 39.9902 14.3226C39.255 14.2791 38.5275 14.4914 37.931 14.9234C36.9238 15.569 36.0725 16.4302 35.4385 17.4447C34.8044 18.4592 34.4034 19.6018 34.2643 20.79C34.125 21.6804 34.3381 22.5901 34.8583 23.326C35.3786 24.0619 36.1651 24.5661 37.051 24.7317C38.35 25.0418 39.7175 24.8686 40.8982 24.2445C42.0789 23.6204 42.9922 22.588 43.4677 21.34C43.9825 20.2976 44.1141 19.1072 43.8392 17.9776C43.5643 16.8479 42.9006 15.851 41.9643 15.1617ZM42.5877 19.8917C42.5419 20.5548 42.3044 21.1903 41.9041 21.7208C41.5037 22.2514 40.9578 22.6541 40.3327 22.88C39.9293 23.0267 39.5443 23.0084 39.3793 22.5134C39.2143 22.0184 41.3593 19.0117 42.1293 19.0484C42.5327 19.085 42.6427 19.4884 42.5877 19.8917Z" fill="#FF510B"/>
<path d="M32.8159 22.66C32.7511 22.2474 32.7144 21.8309 32.7059 21.4134C32.7238 19.5741 33.2946 17.7827 34.3442 16.2722C35.3937 14.7616 36.8734 13.6018 38.5909 12.9434C38.6255 12.9332 38.6571 12.9147 38.6829 12.8894C38.7087 12.8641 38.7278 12.8329 38.7387 12.7985C38.7496 12.7641 38.7518 12.7275 38.7452 12.692C38.7386 12.6566 38.7234 12.6232 38.7009 12.595C37.8759 11.495 34.3925 7.40669 29.5342 7.75502C23.8692 8.15836 23.1175 13.7684 23.5209 15.675C23.9242 17.5817 25.4825 22.4034 32.6875 22.8434C32.8525 22.88 32.8159 22.66 32.8159 22.66ZM30.4325 14.7584C30.2521 15.0105 29.9792 15.1809 29.6734 15.2324C29.3677 15.284 29.054 15.2124 28.8009 15.0334L26.4909 13.2C26.3273 13.131 26.1815 13.0257 26.0645 12.8921C25.9475 12.7585 25.8623 12.6001 25.8155 12.4288C25.7686 12.2575 25.7612 12.0778 25.7939 11.9033C25.8265 11.7287 25.8984 11.5638 26.004 11.4211C26.1096 11.2784 26.2463 11.1614 26.4037 11.0792C26.5611 10.9969 26.7351 10.9515 26.9126 10.9462C27.0901 10.941 27.2664 10.9761 27.4284 11.0489C27.5904 11.1218 27.7337 11.2304 27.8475 11.3667L30.1759 13.2C30.4049 13.3812 30.5582 13.6414 30.6056 13.9295C30.6531 14.2177 30.5914 14.5133 30.4325 14.7584Z" fill="#FF510B"/>
</svg>
