<svg width="52" height="52" viewBox="0 0 52 52" fill="none" xmlns="http://www.w3.org/2000/svg">
<g clip-path="url(#clip0_1_12486)">
<path d="M41.535 0H10.465C7.68951 0 5.0277 1.10256 3.06513 3.06513C1.10256 5.0277 0 7.68951 0 10.465L0 41.535C0 44.3105 1.10256 46.9723 3.06513 48.9349C5.0277 50.8974 7.68951 52 10.465 52H41.535C44.3105 52 46.9723 50.8974 48.9349 48.9349C50.8974 46.9723 52 44.3105 52 41.535V10.465C52 7.68951 50.8974 5.0277 48.9349 3.06513C46.9723 1.10256 44.3105 0 41.535 0V0ZM14.5383 41.5133C14.1963 41.9986 13.6854 42.3387 13.1057 42.4671C12.5261 42.5955 11.9194 42.5029 11.4044 42.2075C10.8894 41.912 10.5032 41.435 10.3215 40.8698C10.1397 40.3046 10.1754 39.6919 10.4217 39.1517L12.09 36.27C12.9126 35.9631 13.8114 35.9257 14.6566 36.1633C15.5018 36.4009 16.2495 36.9011 16.7917 37.5917L14.5383 41.5133ZM30.9833 35.1433H9.44667C8.85656 35.0869 8.30867 34.8125 7.90995 34.3738C7.51124 33.9352 7.29032 33.3636 7.29032 32.7708C7.29032 32.178 7.51124 31.6065 7.90995 31.1678C8.30867 30.7291 8.85656 30.4548 9.44667 30.3983H15.47L23.1833 17.03L20.7783 12.8483C20.621 12.579 20.519 12.2809 20.4786 11.9715C20.4381 11.6622 20.4599 11.3479 20.5426 11.0471C20.6254 10.7463 20.7675 10.4651 20.9605 10.22C21.1535 9.97494 21.3936 9.77093 21.6667 9.62C22.2142 9.31101 22.8609 9.22869 23.4684 9.39068C24.0758 9.55267 24.5957 9.94608 24.9167 10.4867L25.935 12.285L26.975 10.4867C27.296 9.94608 27.8158 9.55267 28.4233 9.39068C29.0308 9.22869 29.6775 9.31101 30.225 9.62C30.4941 9.77489 30.73 9.9813 30.9192 10.2274C31.1084 10.4736 31.2472 10.7546 31.3277 11.0545C31.4082 11.3543 31.4288 11.6671 31.3883 11.9749C31.3478 12.2827 31.247 12.5795 31.0917 12.8483L20.9517 30.3333H28.3833C29.1939 30.4033 29.9493 30.7728 30.5021 31.3697C31.055 31.9667 31.3656 32.7481 31.3733 33.5617C31.3807 34.1136 31.2464 34.6581 30.9833 35.1433ZM42.5317 35.1433H39.1083L41.4267 39.1517C41.582 39.4205 41.6828 39.7173 41.7233 40.0251C41.7638 40.3329 41.7432 40.6457 41.6627 40.9455C41.5822 41.2454 41.4434 41.5264 41.2542 41.7726C41.065 42.0187 40.8291 42.2251 40.56 42.38C40.1474 42.6216 39.6722 42.7348 39.195 42.705C38.8046 42.6749 38.4273 42.5508 38.0953 42.3433C37.7633 42.1358 37.4864 41.851 37.2883 41.5133L28.1667 25.675C27.7793 24.8248 27.5797 23.901 27.5817 22.9667C27.5835 21.2407 28.233 19.5784 29.4017 18.3083L36.3783 30.3333H42.5317C42.8623 30.3017 43.1959 30.3395 43.511 30.4444C43.8261 30.5492 44.1159 30.7188 44.3617 30.9421C44.6074 31.1655 44.8038 31.4378 44.9382 31.7415C45.0726 32.0453 45.142 32.3737 45.142 32.7058C45.142 33.038 45.0726 33.3664 44.9382 33.6701C44.8038 33.9739 44.6074 34.2461 44.3617 34.4695C44.1159 34.6929 43.8261 34.8625 43.511 34.9673C43.1959 35.0721 42.8623 35.11 42.5317 35.0783V35.1433Z" fill="#FF510B"/>
</g>
<defs>
<clipPath id="clip0_1_12486">
<rect width="52" height="52" fill="white"/>
</clipPath>
</defs>
</svg>
