<svg width="40" height="48" viewBox="0 0 40 48" fill="none" xmlns="http://www.w3.org/2000/svg">
<path d="M29.2074 11.597C25.2325 11.3047 21.8604 13.8043 19.9789 13.8043C18.0701 13.8043 15.1271 11.66 12.0065 11.7187C7.90898 11.7783 4.13252 14.0891 2.01968 17.7364C-2.23617 25.0806 0.933297 35.9632 5.07867 41.9227C7.10646 44.8348 9.52492 48.1163 12.7015 47.9968C15.7591 47.8771 16.916 46.0307 20.6119 46.0307C24.3057 46.0307 25.3478 47.9968 28.5811 47.9379C31.8722 47.8771 33.9574 44.9656 35.9703 42.0374C38.2995 38.6574 39.2567 35.3847 39.3135 35.2117C39.2407 35.1843 32.8982 32.7651 32.8348 25.5002C32.7776 19.4264 37.8215 16.5069 38.0508 16.3663C35.1877 12.1741 30.7653 11.7118 29.2074 11.597Z" fill="white"/>
<path d="M26.7546 7.66293C28.4427 5.63456 29.5786 2.8097 29.2658 0C26.8361 0.0957983 23.8976 1.60901 22.1549 3.6361C20.5943 5.43178 19.2237 8.30778 19.5958 11.0601C22.3039 11.2682 25.0679 9.69257 26.7546 7.66293Z" fill="white"/>
</svg>
