<svg width="278" height="62" viewBox="0 0 278 62" fill="none" xmlns="http://www.w3.org/2000/svg">
<path d="M35.5529 11.184C36.7796 9.7006 37.6496 7.68027 37.6496 5.63448C37.6516 5.36798 37.6261 5.10344 37.5732 4.84282C35.5783 4.91924 33.1739 6.17141 31.7434 7.86056C30.6186 9.1382 29.5703 11.184 29.5703 13.2317C29.5722 13.4728 29.5977 13.7118 29.6467 13.947C29.823 13.9803 30.0033 13.9979 30.1836 13.9979C31.9727 13.9979 34.2223 12.7967 35.5529 11.184ZM36.9579 14.433C33.9656 14.433 31.5357 16.2475 29.9759 16.2475C28.3142 16.2475 26.141 14.5349 23.5308 14.5349C18.5966 14.5349 13.584 18.6264 13.584 26.3236C13.584 31.1305 15.426 36.194 17.7265 39.4685C19.6959 42.2295 21.4086 44.5065 23.8894 44.5065C26.3448 44.5065 27.4186 42.8703 30.4619 42.8703C33.556 42.8703 34.2458 44.4556 36.9579 44.4556C39.6425 44.4556 41.4336 42.0002 43.1208 39.5703C45.0137 36.7838 45.8054 34.0718 45.8309 33.9444C45.678 33.8935 40.538 31.7967 40.538 25.9161C40.538 20.827 44.5787 18.552 44.808 18.3737C42.1488 14.5349 38.0827 14.433 36.9579 14.433ZM62.4442 44.2243H68.7599L81.9048 7.32559H75.7419L65.6657 37.8577H65.5384L55.4642 7.32559H49.3013L62.4442 44.2243Z" fill="black"/>
<path d="M87.6581 13.1787C89.4726 13.1787 90.8796 11.7463 90.8796 10.0081C90.8796 8.24453 89.4726 6.81209 87.6581 6.81209C85.867 6.81209 84.4365 8.24453 84.4365 10.0081C84.4365 11.7482 85.869 13.1787 87.6581 13.1787ZM84.897 44.2223H90.4211V17.3213H84.897V44.2223Z" fill="black"/>
<path d="M105.185 44.7611C111.526 44.7611 116.129 41.3848 116.129 36.476V36.4506C116.129 32.5882 114.032 30.4151 108.533 29.1374L104.162 28.14C101.271 27.4502 100.172 26.3254 100.172 24.6618V24.6363C100.172 22.4886 102.037 21.0816 105.006 21.0816C108.126 21.0816 109.968 22.7179 110.299 25.0713L110.325 25.2496H115.515L115.49 24.9439C115.208 20.3664 111.373 16.8117 105.006 16.8117C98.8178 16.8117 94.6243 20.1097 94.6243 24.9185V24.9439C94.6243 28.8572 97.1561 31.3106 102.271 32.4863L106.67 33.4838C109.56 34.1735 110.532 35.1709 110.532 36.911V36.9365C110.532 39.1097 108.537 40.4912 105.214 40.4912C101.812 40.4912 99.972 39.0333 99.4606 36.5525L99.4096 36.2977H93.9365L93.962 36.5289C94.5205 41.4357 98.4592 44.7611 105.185 44.7611Z" fill="black"/>
<path d="M123.016 13.1783C124.831 13.1783 126.238 11.7458 126.238 10.0077C126.238 8.24409 124.831 6.81165 123.016 6.81165C121.225 6.81165 119.795 8.24409 119.795 10.0077C119.793 11.7478 121.225 13.1783 123.016 13.1783ZM120.253 44.2218H125.778V17.3208H120.253V44.2218Z" fill="black"/>
<path d="M142.413 44.7608C150.11 44.7608 155.174 39.4425 155.174 30.7734V30.7224C155.174 22.1062 150.059 16.8114 142.388 16.8114C134.741 16.8114 129.652 22.1297 129.652 30.7224V30.7734C129.654 39.4151 134.692 44.7608 142.413 44.7608ZM142.439 40.1323C138.118 40.1323 135.304 36.7305 135.304 30.7734V30.7224C135.304 24.8418 138.141 21.4399 142.388 21.4399C146.709 21.4399 149.522 24.8418 149.522 30.7224V30.7734C149.522 36.705 146.761 40.1323 142.439 40.1323ZM158.446 44.2239H163.971V28.5493C163.971 24.3558 166.477 21.5438 170.363 21.5438C174.198 21.5438 176.091 23.8189 176.091 27.8595V44.2258H181.64V26.8111C181.64 20.6228 178.238 16.8134 172.332 16.8134C168.266 16.8134 165.505 18.6554 164.098 21.391H163.971V17.3248H158.446V44.2239ZM194.94 44.2239H200.668V31.616H208.672C215.909 31.616 220.922 26.6798 220.922 19.4706V19.4196C220.922 12.1829 215.909 7.32515 208.672 7.32515H194.94V44.2239ZM207.24 12.1575C212.227 12.1575 215.09 14.8421 215.09 19.4451V19.4961C215.09 24.1246 212.225 26.8092 207.24 26.8092H200.668V12.1555L207.24 12.1575ZM224.261 44.2239H229.785V28.1907C229.785 24.1755 231.984 21.8495 235.538 21.8495C236.612 21.8495 237.584 21.9769 238.019 22.1552V17.0152C237.584 16.9388 236.894 16.8114 236.101 16.8114C233.032 16.8114 230.782 18.7808 229.912 21.9259H229.785V17.3229H224.261V44.2239ZM251.652 44.7608C259.349 44.7608 264.413 39.4425 264.413 30.7734V30.7224C264.413 22.1062 259.298 16.8114 251.627 16.8114C243.98 16.8114 238.891 22.1297 238.891 30.7224V30.7734C238.891 39.4151 243.929 44.7608 251.652 44.7608ZM251.675 40.1323C247.355 40.1323 244.541 36.7305 244.541 30.7734V30.7224C244.541 24.8418 247.378 21.4399 251.625 21.4399C255.945 21.4399 258.759 24.8418 258.759 30.7224V30.7734C258.759 36.705 255.998 40.1323 251.675 40.1323Z" fill="black"/>
</svg>
