<svg width="44" height="44" viewBox="0 0 44 44" fill="none" xmlns="http://www.w3.org/2000/svg">
<g clip-path="url(#clip0_1_12523)">
<path d="M33.1288 14.52V12.8333C33.1448 12.1342 33.0012 11.4406 32.7089 10.8052C32.4167 10.1699 31.9834 9.6095 31.4422 9.16667C30.65 8.48662 30.0151 7.64255 29.5815 6.69288C29.1478 5.74322 28.9257 4.71066 28.9305 3.66667V2.12667C28.9256 1.56096 28.6975 1.02007 28.2958 0.62176C27.894 0.223451 27.3512 -2.06625e-05 26.7855 1.43293e-09L16.1522 1.43293e-09C15.5881 1.43293e-09 15.0472 0.224059 14.6484 0.622886C14.2495 1.02171 14.0255 1.56264 14.0255 2.12667V3.66667C14.0305 4.71248 13.8067 5.74673 13.3696 6.69686C12.9325 7.64698 12.2929 8.48997 11.4955 9.16667C10.9542 9.6095 10.521 10.1699 10.2287 10.8052C9.93645 11.4406 9.79285 12.1342 9.80882 12.8333V31.35C9.82012 32.0183 9.97687 32.6761 10.2681 33.2776C10.5594 33.8792 10.9782 34.41 11.4955 34.8333C12.2929 35.51 12.9325 36.353 13.3696 37.3031C13.8067 38.2533 14.0305 39.2875 14.0255 40.3333V41.8367C14.0206 42.119 14.072 42.3995 14.1767 42.6618C14.2814 42.924 14.4373 43.1628 14.6353 43.3642C14.8332 43.5656 15.0693 43.7255 15.3298 43.8347C15.5902 43.9438 15.8698 44 16.1522 44H26.7855C27.3512 44 27.894 43.7766 28.2958 43.3782C28.6975 42.9799 28.9256 42.439 28.9305 41.8733V40.3333C28.9257 39.2893 29.1478 38.2568 29.5815 37.3071C30.0151 36.3575 30.65 35.5134 31.4422 34.8333C31.9688 34.4021 32.3933 33.8595 32.685 33.2445C32.9766 32.6294 33.1282 31.9573 33.1288 31.2767V19.7633H34.1922V14.52H33.1288ZM32.1938 31.4233C32.1987 31.8679 32.1156 32.309 31.9494 32.7213C31.7832 33.1336 31.5371 33.509 31.2253 33.8259C30.9135 34.1428 30.5422 34.3949 30.1326 34.5678C29.7231 34.7407 29.2834 34.8309 28.8388 34.8333H14.1722C13.279 34.8285 12.4237 34.4716 11.7922 33.84C11.1606 33.2084 10.8036 32.3532 10.7988 31.46V12.5767C10.7936 11.6927 11.1336 10.8416 11.7466 10.2047C12.3596 9.56778 13.197 9.19532 14.0805 9.16667H28.8388C29.7303 9.17151 30.5836 9.52905 31.2123 10.1612C31.8409 10.7933 32.1938 11.6485 32.1938 12.54V31.4233Z" fill="#303030"/>
</g>
<defs>
<clipPath id="clip0_1_12523">
<rect width="44" height="44" fill="white"/>
</clipPath>
</defs>
</svg>
