<svg width="44" height="44" viewBox="0 0 44 44" fill="none" xmlns="http://www.w3.org/2000/svg">
<path d="M41.0667 11C40.9069 9.76035 40.3126 8.61754 39.3894 7.77493C38.4662 6.93231 37.2741 6.44452 36.025 6.39835H7.975C6.7282 6.45171 5.5399 6.94196 4.61817 7.78325C3.69644 8.62454 3.10002 9.76325 2.93333 11L0 23.3383V33.0917C0.00484972 34.3138 0.493738 35.4842 1.35963 36.3467C2.22552 37.2091 3.39787 37.6934 4.62 37.6933H39.4533C40.6627 37.6742 41.8163 37.1815 42.6664 36.3211C43.5166 35.4607 43.9954 34.3012 44 33.0917V23.3383L41.0667 11ZM15.9317 14.6667C15.9519 14.5577 15.989 14.4525 16.0417 14.355C16.1276 14.125 16.2892 13.931 16.5 13.805C16.6658 13.7066 16.8448 13.6326 17.0317 13.585C17.2594 13.5168 17.4924 13.4678 17.7283 13.4383C17.7369 13.4745 17.7369 13.5122 17.7283 13.5483C17.7362 13.6883 17.6903 13.8261 17.6 13.9333C17.3809 14.2222 17.0709 14.4289 16.72 14.52C16.5741 14.5408 16.4259 14.5408 16.28 14.52H15.9317V14.6667ZM19.5983 17.27C19.4331 17.5262 19.229 17.755 18.9933 17.9483C18.8291 18.0831 18.6508 18.1999 18.4617 18.2967C18.3135 18.3827 18.1526 18.4446 17.985 18.48C17.7974 18.5171 17.6043 18.5171 17.4167 18.48C17.1967 18.48 16.995 18.48 16.775 18.37H16.2433C16.0303 18.3422 15.8147 18.3422 15.6017 18.37H15.1433L14.6667 18.3333C14.4668 18.3711 14.2616 18.3711 14.0617 18.3333C13.9075 18.3009 13.7591 18.2453 13.6217 18.1683C13.4089 18.0535 13.2117 17.9118 13.035 17.7467C12.7756 17.5266 12.5528 17.2667 12.375 16.9767C12.3088 16.825 12.2656 16.6644 12.2467 16.5C12.2199 16.3484 12.2199 16.1933 12.2467 16.0417C12.2513 15.8186 12.3214 15.6018 12.4483 15.4183C12.6073 15.2025 12.8145 15.0267 13.0533 14.905C13.3283 14.7688 13.6272 14.6878 13.9333 14.6667H14.465C14.7603 14.6852 15.0542 14.722 15.345 14.7767H15.8583H16.2617C16.5 14.795 16.6833 14.6667 16.9033 14.6667H17.4533H17.9667C18.2661 14.6939 18.5613 14.7554 18.8467 14.85C19.0151 14.9166 19.1751 15.0027 19.3233 15.1067H19.415H19.2317C19.0399 15.1989 18.8611 15.316 18.7 15.455C18.5883 15.5604 18.5062 15.6931 18.4617 15.84C18.437 16.0022 18.4624 16.1681 18.5345 16.3155C18.6065 16.4629 18.7218 16.5848 18.865 16.665C19.0103 16.7737 19.171 16.8602 19.3417 16.9217H19.6717L19.5983 17.27ZM24.7867 18.4433H23.9067C22.33 18.4433 21.89 18.1317 21.89 17.4167V15.345H20.9V14.7583H22V13.86H23.3383V14.7583H24.805V15.345H23.3383V17.1783C23.3383 17.5633 23.6133 17.6733 24.3467 17.6733H24.8783L24.7867 18.4433ZM29.4433 18.4433H27.9583L25.7583 14.6667H27.2617L28.71 17.5267L30.36 14.6667H31.8083L29.4433 18.4433Z" fill="#303030"/>
</svg>
