<svg width="347" height="76" viewBox="0 0 347 76" fill="none" xmlns="http://www.w3.org/2000/svg">
<path d="M45.1698 13.7585C46.6948 11.9336 47.7765 9.4482 47.7765 6.93144C47.7789 6.60358 47.7473 6.27814 47.6815 5.95752C45.2014 6.05154 42.2122 7.59197 40.4338 9.66999C39.0354 11.2418 37.732 13.7585 37.732 16.2777C37.7344 16.5742 37.7661 16.8683 37.827 17.1576C38.0463 17.1986 38.2704 17.2203 38.4945 17.2203C40.7188 17.2203 43.5156 15.7425 45.1698 13.7585ZM46.9165 17.7555C43.1964 17.7555 40.1755 19.9878 38.2363 19.9878C36.1704 19.9878 33.4686 17.8808 30.2236 17.8808C24.0892 17.8808 17.8574 22.9144 17.8574 32.3836C17.8574 38.297 20.1475 44.5263 23.0076 48.5545C25.456 51.9512 27.5852 54.7524 30.6694 54.7524C33.722 54.7524 35.0571 52.7395 38.8405 52.7395C42.6873 52.7395 43.5448 54.6897 46.9165 54.6897C50.2541 54.6897 52.4808 51.6691 54.5784 48.6799C56.9318 45.2519 57.916 41.9155 57.9477 41.7588C57.7576 41.6961 51.3675 39.1166 51.3675 31.8821C51.3675 25.6216 56.3909 22.8228 56.676 22.6034C53.37 17.8808 48.3149 17.7555 46.9165 17.7555ZM78.6018 54.4053H86.4537L102.796 9.01187H95.1339L82.607 46.5729H82.4486L69.9241 9.01187H62.2622L78.6018 54.4053Z" fill="white"/>
<path d="M109.948 16.2125C112.204 16.2125 113.954 14.4503 113.954 12.312C113.954 10.1423 112.204 8.38013 109.948 8.38013C107.722 8.38013 105.943 10.1423 105.943 12.312C105.943 14.4527 107.724 16.2125 109.948 16.2125ZM106.516 54.4027H113.384V21.3087H106.516V54.4027Z" fill="white"/>
<path d="M131.738 55.0657C139.621 55.0657 145.344 50.912 145.344 44.8732V44.8419C145.344 40.0904 142.737 37.4169 135.901 35.8452L130.466 34.6181C126.873 33.7696 125.506 32.3858 125.506 30.3391V30.3078C125.506 27.6657 127.825 25.9348 131.516 25.9348C135.394 25.9348 137.685 27.9477 138.096 30.843L138.128 31.0623H144.581L144.55 30.6863C144.199 25.0549 139.431 20.6819 131.516 20.6819C123.822 20.6819 118.609 24.7391 118.609 30.6549V30.6863C118.609 35.5004 121.757 38.5186 128.115 39.965L133.584 41.1921C137.178 42.0407 138.386 43.2677 138.386 45.4084V45.4397C138.386 48.1132 135.906 49.8127 131.774 49.8127C127.545 49.8127 125.257 48.0192 124.622 44.9672L124.558 44.6539H117.754L117.786 44.9383C118.48 50.9747 123.377 55.0657 131.738 55.0657Z" fill="white"/>
<path d="M153.906 16.2122C156.162 16.2122 157.912 14.45 157.912 12.3117C157.912 10.1421 156.162 8.37988 153.906 8.37988C151.68 8.37988 149.901 10.1421 149.901 12.3117C149.899 14.4524 151.68 16.2122 153.906 16.2122ZM150.471 54.4025H157.339V21.3084H150.471V54.4025Z" fill="white"/>
<path d="M178.022 55.0654C187.591 55.0654 193.886 48.5228 193.886 37.8579V37.7952C193.886 27.1954 187.528 20.6817 177.99 20.6817C168.484 20.6817 162.157 27.2243 162.157 37.7952V37.8579C162.16 48.489 168.423 55.0654 178.022 55.0654ZM178.053 49.3713C172.682 49.3713 169.183 45.1864 169.183 37.8579V37.7952C169.183 30.5607 172.711 26.3757 177.99 26.3757C183.362 26.3757 186.86 30.5607 186.86 37.7952V37.8579C186.86 45.1551 183.428 49.3713 178.053 49.3713ZM197.955 54.4049H204.823V35.1217C204.823 29.9628 207.938 26.5035 212.769 26.5035C217.537 26.5035 219.89 29.3023 219.89 34.2732V54.4073H226.79V32.9834C226.79 25.3705 222.561 20.6841 215.218 20.6841C210.163 20.6841 206.73 22.9501 204.981 26.3155H204.823V21.3133H197.955V54.4049ZM243.324 54.4049H250.445V38.8945H260.397C269.394 38.8945 275.626 32.8219 275.626 23.953V23.8903C275.626 14.9876 269.394 9.01147 260.397 9.01147H243.324V54.4049ZM258.616 14.9563C264.817 14.9563 268.376 18.2589 268.376 23.9216V23.9843C268.376 29.6784 264.814 32.981 258.616 32.981H250.445V14.9538L258.616 14.9563ZM279.777 54.4049H286.645V34.6806C286.645 29.741 289.378 26.8796 293.798 26.8796C295.133 26.8796 296.341 27.0363 296.882 27.2556V20.9324C296.341 20.8384 295.484 20.6817 294.497 20.6817C290.682 20.6817 287.885 23.1044 286.803 26.9736H286.645V21.3109H279.777V54.4049ZM313.831 55.0654C323.4 55.0654 329.695 48.5228 329.695 37.8579V37.7952C329.695 27.1954 323.337 20.6817 313.799 20.6817C304.293 20.6817 297.966 27.2243 297.966 37.7952V37.8579C297.966 48.489 304.23 55.0654 313.831 55.0654ZM313.86 49.3713C308.488 49.3713 304.99 45.1864 304.99 37.8579V37.7952C304.99 30.5607 308.517 26.3757 313.797 26.3757C319.168 26.3757 322.667 30.5607 322.667 37.7952V37.8579C322.667 45.1551 319.234 49.3713 313.86 49.3713Z" fill="white"/>
</svg>
