<svg width="39" height="25" viewBox="0 0 39 25" fill="none" xmlns="http://www.w3.org/2000/svg">
<path opacity="0.4" d="M37.4044 13.7886L18.4238 13.7886C17.5457 13.7886 16.8331 13.076 16.8331 12.1979C16.8331 11.3198 17.5457 10.6072 18.4238 10.6072L37.4044 10.6072C38.2825 10.6072 38.9951 11.3198 38.9951 12.1979C38.9951 13.076 38.2825 13.7886 37.4044 13.7886Z" fill="#FF510C"/>
<mask id="mask0_1_12842" style="mask-type:luminance" maskUnits="userSpaceOnUse" x="0" y="0" width="21" height="25">
<path d="M20.0137 0L20.0137 24.3949L-5.34058e-05 24.3949L-5.34058e-05 0L20.0137 0Z" fill="#FF510C"/>
</mask>
<g mask="url(#mask0_1_12842)">
<path d="M16.6647 22.388C16.4322 22.388 16.203 22.3197 16.0004 22.1866L2.82141 13.4258C2.45938 13.1841 2.23851 12.7654 2.23851 12.3134C2.23851 11.8615 2.45938 11.4428 2.82141 11.2011L16.0004 2.44032C16.384 2.18631 16.8689 2.17054 17.2658 2.40353C17.6644 2.63477 17.9102 3.07447 17.9102 3.55271L17.9102 21.0742C17.9102 21.5524 17.6644 21.9921 17.2658 22.2234C17.0782 22.3337 16.8706 22.388 16.6647 22.388Z" fill="#FF510C"/>
</g>
</svg>
