<svg width="319" height="32" viewBox="0 0 319 32" fill="none" xmlns="http://www.w3.org/2000/svg">
<g clip-path="url(#clip0_1_12694)">
<path d="M1.1377 4.51785C1.1377 3.11329 2.28824 1.99341 3.70591 1.99341C5.12397 1.99341 6.27451 3.11329 6.27451 4.51785C6.27451 5.902 5.12397 7.0419 3.70591 7.0419C2.28824 7.0419 1.1377 5.902 1.1377 4.51785ZM1.48686 10.1769H5.92495V31.5929H1.48686V10.1769Z" fill="white"/>
<path d="M22.1172 2.21729C27.8703 2.21729 31.8768 6.14629 31.8768 11.8666C31.8768 17.6074 27.7883 21.5568 21.9733 21.5568H15.6035V31.593H11.001V2.21729H22.1172ZM15.6035 17.7295H20.8842C24.8911 17.7295 27.1716 15.5922 27.1716 11.8871C27.1716 8.18226 24.8911 6.06501 20.9048 6.06501H15.6035V17.7295Z" fill="white"/>
<path d="M35.0322 2.21729H39.4295V13.7601H39.5321C40.7239 11.256 43.0868 9.81064 46.3744 9.81064C51.1208 9.81064 53.9561 12.9457 53.9561 17.7908V31.593H49.4974V18.6456C49.4974 15.4905 47.8947 13.5971 44.7716 13.5971C41.4841 13.5971 39.4703 15.8365 39.4703 19.2158V31.593H35.0322V2.21729Z" fill="white"/>
<path d="M57.0566 20.885C57.0566 14.0044 61.1456 9.79028 67.3097 9.79028C73.4738 9.79028 77.5627 14.0044 77.5627 20.885C77.5627 27.7861 73.4944 32.0002 67.3097 32.0002C61.125 32.0002 57.0566 27.7861 57.0566 20.885ZM73.0422 20.885C73.0422 16.142 70.7819 13.4142 67.3097 13.4142C63.837 13.4142 61.5768 16.142 61.5768 20.885C61.5768 25.6488 63.837 28.3767 67.3097 28.3767C70.8025 28.3767 73.0422 25.6488 73.0422 20.885Z" fill="white"/>
<path d="M80.8711 10.1769H85.1039V13.76H85.2065C86.3777 11.3172 88.6792 9.81055 92.0079 9.81055C96.7746 9.81055 99.5077 12.8235 99.5077 17.7294V31.5929H95.0486V18.5846C95.0486 15.3683 93.5283 13.597 90.446 13.597C87.3229 13.597 85.3096 15.7955 85.3096 19.114V31.5929H80.8711V10.1769Z" fill="white"/>
<path d="M122.106 25.3025C121.49 29.2111 117.75 32.0002 112.799 32.0002C106.449 32.0002 102.607 27.7457 102.607 20.9867C102.607 14.269 106.511 9.79028 112.614 9.79028C118.614 9.79028 122.353 13.9839 122.353 20.4778V21.9845H107.087V22.2492C107.087 25.9744 109.347 28.4376 112.901 28.4376C115.429 28.4376 117.299 27.1755 117.894 25.3025H122.106ZM107.107 18.9103H117.915C117.812 15.6331 115.716 13.3325 112.614 13.3325C109.511 13.3325 107.333 15.6736 107.107 18.9103Z" fill="white"/>
<path d="M159.143 25.7505H144.308V21.7806C146.856 17.0581 150.246 11.7854 156.903 2.21729H163.56V21.9232H167.649V25.7505H163.56V31.593H159.143V25.7505ZM148.582 21.9844H159.184V5.75952H159.102C153.965 13.0474 150.945 17.6891 148.582 21.8623V21.9844Z" fill="white"/>
<path d="M188.695 2.21729C194.448 2.21729 198.455 6.14629 198.455 11.8666C198.455 17.6074 194.366 21.5568 188.551 21.5568H182.182V31.593H177.579V2.21729H188.695ZM182.182 17.7295H187.462C191.469 17.7295 193.75 15.5922 193.75 11.8871C193.75 8.18226 191.469 6.06501 187.483 6.06501H182.182V17.7295Z" fill="white"/>
<path d="M201.94 10.177H206.173V13.8209H206.276C206.995 11.3173 208.927 9.83105 211.475 9.83105C212.111 9.83105 212.666 9.93275 212.995 9.99401V14.0856C212.646 13.943 211.865 13.8413 211.002 13.8413C208.146 13.8413 206.379 15.7348 206.379 18.7677V31.5929H201.94V10.177Z" fill="white"/>
<path d="M213.86 20.885C213.86 14.0044 217.949 9.79028 224.113 9.79028C230.277 9.79028 234.366 14.0044 234.366 20.885C234.366 27.7861 230.298 32.0002 224.113 32.0002C217.929 32.0002 213.86 27.7861 213.86 20.885ZM229.846 20.885C229.846 16.142 227.586 13.4142 224.113 13.4142C220.641 13.4142 218.38 16.142 218.38 20.885C218.38 25.6488 220.641 28.3767 224.113 28.3767C227.606 28.3767 229.846 25.6488 229.846 20.885Z" fill="white"/>
<path d="M269.998 31.593V9.9736H269.854L260.916 31.593H257.505L248.546 9.9736H248.403V31.593H244.211V2.21729H249.533L259.128 25.6284H259.293L268.868 2.21729H274.21V31.593H269.998Z" fill="white"/>
<path d="M277.728 25.5063C277.728 21.7603 280.625 19.4601 285.762 19.175L291.679 18.829V17.1802C291.679 14.7983 290.056 13.3734 287.344 13.3734C284.775 13.3734 283.172 14.5945 282.782 16.5084H278.59C278.837 12.6402 282.166 9.79028 287.508 9.79028C292.748 9.79028 296.097 12.5385 296.097 16.8339V31.593H291.843V28.0712H291.741C290.487 30.4531 287.755 31.9594 284.919 31.9594C280.686 31.9594 277.728 29.3536 277.728 25.5063ZM291.679 23.5724V21.8828L286.357 22.2083C283.707 22.3917 282.207 23.552 282.207 25.3842C282.207 27.2568 283.768 28.4784 286.152 28.4784C289.254 28.4784 291.679 26.3611 291.679 23.5724Z" fill="white"/>
<path d="M308.388 23.7145L303.6 31.593H298.792L305.922 20.9054L298.895 10.177H303.867L308.593 17.9333H308.675L313.34 10.177H318.23L311.141 20.7629L318.148 31.593H313.257L308.491 23.7145H308.388Z" fill="white"/>
<path d="M136.112 2.21729L130.061 6.47728V10.8294L136.05 6.73686H136.153V31.593H140.653V2.21729H136.112Z" fill="white"/>
</g>
<defs>
<clipPath id="clip0_1_12694">
<rect width="317.321" height="32" fill="white" transform="translate(0.910156)"/>
</clipPath>
</defs>
</svg>
