<svg width="30" height="30" viewBox="0 0 30 30" fill="none" xmlns="http://www.w3.org/2000/svg">
<path d="M16.2376 3.4375C17.3136 3.4375 17.7899 3.43844 18.1827 3.47361C22.5493 3.86456 26.0099 7.32521 26.4009 11.6918C26.4361 12.0846 26.437 12.5609 26.437 13.6369V14.8744C26.437 15.3921 26.8567 15.8119 27.3745 15.8119C27.8923 15.8119 28.312 15.3921 28.312 14.8744V13.5739C28.312 12.5778 28.312 12.0117 28.2684 11.5246C27.7966 6.25456 23.6199 2.07792 18.3499 1.60608C17.8628 1.56247 17.2967 1.56248 16.3005 1.5625H15.0001C14.4824 1.5625 14.0626 1.98224 14.0626 2.5C14.0626 3.01777 14.4824 3.4375 15.0001 3.4375L16.2376 3.4375Z" fill="#FF510C"/>
<path fill-rule="evenodd" clip-rule="evenodd" d="M8.88979 5.03162C7.57468 3.82321 5.55324 3.82321 4.23813 5.03162C4.18427 5.08111 4.12678 5.13861 4.05213 5.21328L2.93024 6.33517C1.80135 7.46406 1.32745 9.09146 1.67378 10.6499C3.63874 19.4923 10.5444 26.3979 19.3867 28.3629C20.9452 28.7092 22.5726 28.2353 23.7015 27.1064L24.8233 25.9847C24.898 25.91 24.9555 25.8524 25.005 25.7985C26.2135 24.4834 26.2135 22.462 25.005 21.1469C24.9555 21.093 24.898 21.0355 24.8233 20.9608L22.9867 19.1242C21.7116 17.8491 19.7859 17.4844 18.1328 18.2049C17.1864 18.6175 16.084 18.4087 15.354 17.6787L12.358 14.6827C11.628 13.9527 11.4192 12.8502 11.8317 11.9039C12.5523 10.2508 12.1876 8.32511 10.9125 7.04998L9.07582 5.21332C9.00115 5.13863 8.94365 5.08112 8.88979 5.03162ZM5.50676 6.41227C6.10454 5.86299 7.02338 5.86299 7.62115 6.41227C7.64179 6.43123 7.66883 6.45798 7.76392 6.55307L9.58666 8.37581C10.3167 9.10581 10.5254 10.2082 10.1129 11.1546C9.39235 12.8077 9.75704 14.7334 11.0322 16.0085L14.0282 19.0045C15.3033 20.2796 17.229 20.6443 18.882 19.9237C19.8284 19.5112 20.9309 19.72 21.6609 20.45L23.4836 22.2728C23.5787 22.3678 23.6054 22.3949 23.6244 22.4155C24.1737 23.0133 24.1737 23.9321 23.6244 24.5299C23.6054 24.5505 23.5787 24.5776 23.4836 24.6727L22.3757 25.7806C21.7001 26.4562 20.7262 26.7398 19.7935 26.5325C11.6618 24.7255 5.31117 18.3749 3.50413 10.2432C3.29687 9.31051 3.58048 8.33659 4.25607 7.66099L5.364 6.55307C5.45908 6.45798 5.48613 6.43123 5.50676 6.41227Z" fill="#FF510C"/>
<path d="M15.8839 5.98192C15.3661 5.98192 14.9464 6.40165 14.9464 6.91942C14.9464 7.43719 15.3661 7.85692 15.8839 7.85692H16.591C16.6046 7.85692 16.6172 7.85692 16.629 7.85692C16.7111 7.85693 16.7492 7.85701 16.781 7.85746C19.6555 7.89863 21.9757 10.2189 22.0169 13.0933C22.0174 13.1297 22.0174 13.1743 22.0174 13.2834V13.9905C22.0174 14.5083 22.4372 14.928 22.9549 14.928C23.4727 14.928 23.8924 14.5083 23.8924 13.9905V13.2743C23.8924 13.2622 23.8924 13.2506 23.8924 13.2396C23.8924 13.1625 23.8924 13.1116 23.8917 13.0665C23.836 9.1775 20.6969 6.03835 16.8079 5.98266C16.7563 5.98192 16.6972 5.98192 16.6 5.98192H15.8839Z" fill="#FF510C"/>
</svg>
