<svg width="22" height="20" viewBox="0 0 22 20" fill="none" xmlns="http://www.w3.org/2000/svg">
<path d="M9.11844 0.585411L0.835403 8.83104C0.212803 9.45144 0.212803 10.5492 0.835403 11.1719L9.11844 19.4175C9.76524 20.0599 10.8102 20.0577 11.4526 19.4109C12.095 18.7641 12.095 17.7213 11.4482 17.0767L5.99882 11.6493L19.9799 11.6493C20.8929 11.6493 21.6299 10.91 21.6299 9.99925C21.6299 9.08844 20.8929 8.34924 19.9799 8.34924L5.99882 8.34924L11.4482 2.92402C11.7716 2.60062 11.9322 2.17822 11.9322 1.75361C11.9322 1.33341 11.7716 0.911011 11.4526 0.58981C10.8102 -0.0547921 9.76524 -0.0569918 9.11844 0.585411Z" fill="white"/>
</svg>
