<svg width="324" height="41" viewBox="0 0 324 41" fill="none" xmlns="http://www.w3.org/2000/svg">
<g clip-path="url(#clip0_1_12855)">
<path fill-rule="evenodd" clip-rule="evenodd" d="M22.5984 6.51377C23.8612 4.99039 24.7557 2.91544 24.7557 0.814222C24.7557 0.525304 24.7294 0.236387 24.6767 0C22.6247 0.0787956 20.1518 1.36579 18.6786 3.0993C17.521 4.41256 16.4424 6.51377 16.4424 8.61499C16.4424 8.93017 16.495 9.24536 16.5213 9.35042C16.6529 9.37668 16.8633 9.40295 17.0738 9.40295C18.9153 9.40295 21.2304 8.16848 22.5984 6.51377ZM24.0454 9.84946C20.9673 9.84946 18.4681 11.7143 16.8633 11.7143C15.1533 11.7143 12.9171 9.95452 10.2337 9.95452C5.15633 9.95452 0 14.157 0 22.0628C0 27.0006 1.89416 32.2012 4.26187 35.5631C6.28757 38.3997 8.0502 40.7374 10.6021 40.7374C13.1276 40.7374 14.2325 39.0564 17.3632 39.0564C20.5464 39.0564 21.2567 40.6848 24.0454 40.6848C26.8077 40.6848 28.6492 38.1634 30.3855 35.6682C32.3323 32.8053 33.1479 30.0211 33.1742 29.8898C33.0163 29.8373 27.7285 27.6835 27.7285 21.6425C27.7285 16.4158 31.8851 14.0782 32.1219 13.8943C29.3858 9.95452 25.2029 9.84946 24.0454 9.84946ZM43.2796 40.4484H50.3827L53.5922 30.6515H67.7195L70.9291 40.4484H78.0585L64.4837 2.54773H56.8544L43.2796 40.4484ZM60.5901 9.29789H60.748L66.0095 25.4247H55.3022L60.5901 9.29789ZM83.2822 8.61499C85.3342 8.61499 86.9127 6.98655 86.9127 5.04292C86.9127 3.04676 85.3342 1.44459 83.2822 1.44459C81.2302 1.44459 79.6254 3.04676 79.6254 5.04292C79.6254 6.98655 81.2302 8.61499 83.2822 8.61499ZM79.9937 40.4484H86.5444V12.6073H79.9937V40.4484ZM90.479 40.4484H97.0296V24.2953C97.0296 20.1717 99.2658 17.8341 102.975 17.8341C104.08 17.8341 105.08 17.9917 105.632 18.2018V12.2921C105.132 12.1608 104.37 12.0295 103.554 12.0295C100.344 12.0295 98.0293 14.0519 97.1612 17.4138H97.0296V12.6073H90.479L90.479 40.4484ZM108.041 40.4484H114.828V27.9199H122.668C130.35 27.9199 135.585 22.8245 135.585 15.2601V15.2076C135.585 7.61691 130.35 2.54773 122.668 2.54773H108.041V40.4484ZM120.984 8.08969C125.851 8.08969 128.693 10.6899 128.693 15.2338V15.2864C128.693 19.8302 125.851 22.4568 120.984 22.4568H114.828V8.08969H120.984ZM149.543 41C157.725 41 163.039 35.5631 163.039 26.5279V26.4753C163.039 17.4926 157.646 12.0295 149.517 12.0295C141.414 12.0295 136.047 17.5452 136.047 26.4753V26.5279C136.047 35.5368 141.335 41 149.543 41ZM149.57 35.7207C145.387 35.7207 142.729 32.385 142.729 26.5279V26.4753C142.729 20.697 145.439 17.335 149.517 17.335C153.674 17.335 156.357 20.6707 156.357 26.4753V26.5279C156.357 32.3587 153.7 35.7207 149.57 35.7207ZM175.997 41C180.022 41 183.1 39.0038 184.679 35.7207H184.837V40.4484H191.387V2.54773H184.837V17.3876H184.679C183.1 14.0519 179.917 12.0295 175.971 12.0295C168.973 12.0295 164.475 17.5189 164.475 26.5016V26.5279C164.475 35.4843 168.947 41 175.997 41ZM177.97 35.4843C173.761 35.4843 171.157 32.0698 171.157 26.5279V26.5016C171.157 20.9596 173.787 17.5452 177.97 17.5452C181.996 17.5452 184.837 21.0647 184.837 26.5016V26.5279C184.837 31.991 182.022 35.4843 177.97 35.4843ZM206.161 41C213.001 41 217.868 37.4805 217.868 32.2274V32.2011C217.868 28.1563 215.632 25.8975 209.87 24.6105L205.214 23.5862C202.32 22.9295 201.241 21.8789 201.241 20.2767V20.2505C201.241 18.2018 203.057 16.8623 205.95 16.8623C209.002 16.8623 210.791 18.4907 211.08 20.7232L211.107 20.9334H217.21L217.184 20.6444C216.947 15.8379 212.896 12.0295 205.95 12.0295C199.216 12.0295 194.77 15.4702 194.77 20.5656V20.5919C194.77 24.7155 197.453 27.3158 202.793 28.4977L207.424 29.5221C210.318 30.1787 211.291 31.1243 211.291 32.8052V32.8315C211.291 34.8802 209.37 36.1672 206.187 36.1672C202.872 36.1672 201.057 34.7489 200.557 32.3587L200.505 32.1223H194.059L194.086 32.3587C194.664 37.533 198.847 41 206.161 41ZM230.236 40.4484H236.365V13.5003H236.55L247.494 40.4484H252.097L263.042 13.5003H263.252V40.4484H269.355V2.54773H261.516L249.888 31.492H249.703L238.075 2.54773H230.236V40.4484ZM281.34 40.9212C285.023 40.9212 288.128 39.0826 289.732 36.1672H289.89V40.4484H296.441V21.3011C296.441 15.7066 291.942 12.0295 284.971 12.0295C277.894 12.0295 273.606 15.7329 273.211 20.6707L273.185 20.9859H279.262L279.315 20.7495C279.735 18.7008 281.63 17.2562 284.734 17.2562C288.049 17.2562 289.89 18.9635 289.89 21.7739V23.6912L282.603 24.1377C275.842 24.558 272.001 27.5259 272.001 32.4638V32.5163C272.001 37.4805 275.763 40.9212 281.34 40.9212ZM278.525 32.2537V32.2274C278.525 30.0211 280.288 28.6291 283.524 28.419L289.89 28.025V30.1262C289.89 33.4356 287.049 35.9308 283.287 35.9308C280.419 35.9308 278.525 34.5388 278.525 32.2537ZM298.06 40.4484H305.058L310.82 30.4676H310.978L316.765 40.4484H323.921L315.029 26.3703L324 12.6073H316.844L311.293 22.378H311.135L305.532 12.6073H298.166L307.084 26.5541L298.06 40.4484Z" fill="white"/>
</g>
<defs>
<clipPath id="clip0_1_12855">
<rect width="324" height="41" fill="white"/>
</clipPath>
</defs>
</svg>
