<svg width="44" height="44" viewBox="0 0 44 44" fill="none" xmlns="http://www.w3.org/2000/svg">
<path d="M39.1781 7.09499C37.8366 5.44407 36.1424 4.11455 34.2198 3.20404C32.2973 2.29354 30.1953 1.82517 28.068 1.83333H15.9314C13.8042 1.82517 11.7021 2.29354 9.77959 3.20404C7.85707 4.11455 6.16287 5.44407 4.82138 7.09499C2.66753 9.78829 1.177 12.9502 0.470093 16.3256C-0.236817 19.701 -0.140313 23.1953 0.751819 26.5265C1.64395 29.8577 3.30672 32.9325 5.60594 35.5028C7.90516 38.0732 10.7764 40.067 13.988 41.3233C15.4676 41.8911 17.0419 42.1711 18.6264 42.1483H25.3364C26.9208 42.1697 28.4949 41.8898 29.9747 41.3233C33.1863 40.067 36.0576 38.0732 38.3568 35.5028C40.656 32.9325 42.3188 29.8577 43.2109 26.5265C44.1031 23.1953 44.1996 19.701 43.4927 16.3256C42.7858 12.9502 41.2952 9.78829 39.1414 7.09499H39.1781ZM21.9997 7.93833C15.968 7.93833 11.0914 7.05833 11.0914 5.97666C11.0914 4.89499 15.9864 4.03333 21.9997 4.03333C28.013 4.03333 32.9997 4.91333 32.9997 5.97666C32.9997 7.03999 28.0314 7.93833 21.9997 7.93833Z" fill="#303030"/>
<path d="M14.2998 5.97667C14.2998 6.30667 17.7465 6.56333 22.0181 6.56333C26.2898 6.56333 29.7365 6.30667 29.7365 5.97667C29.7365 5.64667 26.2715 5.5 21.9998 5.5C17.7281 5.5 14.2998 5.665 14.2998 5.97667Z" fill="#303030"/>
</svg>
