<svg width="44" height="44" viewBox="0 0 44 44" fill="none" xmlns="http://www.w3.org/2000/svg">
<g clip-path="url(#clip0_1_12503)">
<path d="M34.4845 0H9.51452C8.76086 0 8.03807 0.299389 7.50516 0.832305C6.97224 1.36522 6.67285 2.08801 6.67285 2.84167V41.1583C6.67285 41.5315 6.74635 41.901 6.88916 42.2458C7.03197 42.5906 7.24128 42.9038 7.50516 43.1677C7.76903 43.4316 8.08229 43.6409 8.42706 43.7837C8.77183 43.9265 9.14135 44 9.51452 44H34.4845C34.8577 44 35.2272 43.9265 35.572 43.7837C35.9167 43.6409 36.23 43.4316 36.4939 43.1677C36.7578 42.9038 36.9671 42.5906 37.1099 42.2458C37.2527 41.901 37.3262 41.5315 37.3262 41.1583V2.84167C37.3262 2.08801 37.0268 1.36522 36.4939 0.832305C35.961 0.299389 35.2382 0 34.4845 0V0ZM21.9995 19.7267C21.9804 19.6113 21.9804 19.4937 21.9995 19.3783C22.0532 19.2191 22.1338 19.0703 22.2379 18.9383C22.3289 18.8434 22.434 18.763 22.5495 18.7C22.6778 18.6355 22.8131 18.5863 22.9529 18.5533C22.9614 18.5895 22.9614 18.6272 22.9529 18.6633C22.9896 18.7953 22.9896 18.9347 22.9529 19.0667C22.8699 19.3281 22.6937 19.55 22.4579 19.69C22.3677 19.7133 22.273 19.7133 22.1829 19.69H22.0179L21.9995 19.7267ZM13.6762 5.5C13.6714 5.91497 13.5031 6.31131 13.208 6.60304C12.9128 6.89477 12.5145 7.05836 12.0995 7.05833H10.0279C9.61456 7.05833 9.21819 6.89415 8.92594 6.60191C8.6337 6.30966 8.46952 5.9133 8.46952 5.5V3.135C8.46949 2.72 8.63308 2.32172 8.92481 2.02656C9.21654 1.7314 9.61288 1.56316 10.0279 1.55833H12.0995C12.5162 1.5631 12.9145 1.73074 13.2091 2.02539C13.5038 2.32005 13.6714 2.71832 13.6762 3.135V5.5ZM21.0095 42.1667C20.9297 42.1667 20.8518 42.143 20.7854 42.0987C20.7191 42.0544 20.6674 41.9914 20.6369 41.9177C20.6064 41.844 20.5984 41.7629 20.6139 41.6846C20.6295 41.6064 20.6679 41.5345 20.7243 41.4781C20.7807 41.4217 20.8526 41.3833 20.9308 41.3678C21.0091 41.3522 21.0902 41.3602 21.1639 41.3907C21.2376 41.4212 21.3006 41.4729 21.3449 41.5393C21.3892 41.6056 21.4129 41.6836 21.4129 41.7633C21.3836 41.8536 21.3234 41.9307 21.2429 41.981C21.1625 42.0313 21.0668 42.0516 20.9729 42.0383L21.0095 42.1667ZM22.0362 42.1667C21.9564 42.1667 21.8784 42.143 21.8121 42.0987C21.7458 42.0544 21.6941 41.9914 21.6636 41.9177C21.633 41.844 21.625 41.7629 21.6406 41.6846C21.6562 41.6064 21.6946 41.5345 21.751 41.4781C21.8074 41.4217 21.8793 41.3833 21.9575 41.3678C22.0357 41.3522 22.1168 41.3602 22.1905 41.3907C22.2642 41.4212 22.3272 41.4729 22.3715 41.5393C22.4159 41.6056 22.4395 41.6836 22.4395 41.7633C22.4103 41.8536 22.3501 41.9307 22.2696 41.981C22.1891 42.0313 22.0935 42.0516 21.9995 42.0383L22.0362 42.1667ZM23.0629 42.1667C22.9831 42.1667 22.9051 42.143 22.8388 42.0987C22.7724 42.0544 22.7207 41.9914 22.6902 41.9177C22.6597 41.844 22.6517 41.7629 22.6673 41.6846C22.6828 41.6064 22.7212 41.5345 22.7777 41.4781C22.8341 41.4217 22.9059 41.3833 22.9842 41.3678C23.0624 41.3522 23.1435 41.3602 23.2172 41.3907C23.2909 41.4212 23.3539 41.4729 23.3982 41.5393C23.4425 41.6056 23.4662 41.6836 23.4662 41.7633C23.4369 41.8536 23.3768 41.9307 23.2963 41.981C23.2158 42.0313 23.1202 42.0516 23.0262 42.0383L23.0629 42.1667ZM24.1812 22.605C24.0987 22.8526 23.9814 23.0871 23.8329 23.3017C23.7496 23.4454 23.6445 23.5753 23.5212 23.6867C23.441 23.7682 23.3481 23.8363 23.2462 23.8883C23.138 23.9163 23.0244 23.9163 22.9162 23.8883C22.7895 23.8687 22.6661 23.8317 22.5495 23.7783H22.2379C22.1172 23.7502 21.9918 23.7502 21.8712 23.7783H21.5962H21.3395C21.2263 23.8148 21.1044 23.8148 20.9912 23.7783C20.8955 23.741 20.8082 23.6849 20.7345 23.6133C20.6087 23.4792 20.4981 23.3316 20.4045 23.1733C20.2397 22.9169 20.1102 22.6394 20.0195 22.3483C19.9682 22.1857 19.9253 22.0205 19.8912 21.8533C19.8817 21.6946 19.8817 21.5354 19.8912 21.3767C19.8892 21.1503 19.9329 20.9258 20.0195 20.7167C20.0892 20.513 20.209 20.3302 20.3679 20.185C20.5114 20.0359 20.6968 19.9336 20.8995 19.8917H21.1929C21.3676 19.9089 21.5398 19.9458 21.7062 20.0017H22.0179C22.0901 20.0195 22.1656 20.0195 22.2379 20.0017L22.6229 19.8917H22.9345H23.2462C23.4231 19.9137 23.5925 19.9765 23.7412 20.075C23.8472 20.1506 23.9455 20.2366 24.0345 20.3317L23.9245 20.4417C23.8126 20.5451 23.7141 20.6621 23.6312 20.79C23.5553 20.9197 23.5055 21.0629 23.4845 21.2117C23.4639 21.3639 23.4744 21.5188 23.5154 21.6669C23.5564 21.815 23.6269 21.9533 23.7229 22.0733C23.7954 22.1823 23.8889 22.2757 23.9979 22.3483L24.1812 22.44V22.605Z" fill="#303030"/>
<path d="M9.93576 4.05166C10.4623 4.05166 10.8891 3.62483 10.8891 3.09832C10.8891 2.57181 10.4623 2.14499 9.93576 2.14499C9.40924 2.14499 8.98242 2.57181 8.98242 3.09832C8.98242 3.62483 9.40924 4.05166 9.93576 4.05166Z" fill="#303030"/>
<path d="M9.93576 6.43499C10.4623 6.43499 10.8891 6.00817 10.8891 5.48165C10.8891 4.95514 10.4623 4.52832 9.93576 4.52832C9.40924 4.52832 8.98242 4.95514 8.98242 5.48165C8.98242 6.00817 9.40924 6.43499 9.93576 6.43499Z" fill="#303030"/>
<path d="M12.1545 2.98832C12.2566 2.98832 12.3546 2.94776 12.4268 2.87556C12.499 2.80336 12.5395 2.70543 12.5395 2.60332C12.5395 2.50121 12.499 2.40329 12.4268 2.33109C12.3546 2.25889 12.2566 2.21832 12.1545 2.21832C12.0524 2.21832 11.9545 2.25889 11.8823 2.33109C11.8101 2.40329 11.7695 2.50121 11.7695 2.60332C11.7695 2.70543 11.8101 2.80336 11.8823 2.87556C11.9545 2.94776 12.0524 2.98832 12.1545 2.98832Z" fill="#303030"/>
<path d="M12.1913 5.66501C12.1656 5.66488 12.1402 5.67016 12.1167 5.6805C12.0931 5.69083 12.072 5.706 12.0547 5.72502C12.0375 5.74403 12.0244 5.76647 12.0163 5.79088C12.0083 5.81528 12.0054 5.84111 12.008 5.86668C12.005 5.89146 12.0078 5.91659 12.0159 5.94018C12.0241 5.96376 12.0375 5.98519 12.0552 6.00284C12.0728 6.02049 12.0942 6.0339 12.1178 6.04207C12.1414 6.05025 12.1665 6.05296 12.1913 6.05001C12.2169 6.05258 12.2427 6.04975 12.2671 6.04169C12.2915 6.03364 12.314 6.02054 12.333 6.00325C12.352 5.98597 12.3672 5.96487 12.3775 5.94134C12.3878 5.91782 12.3931 5.89238 12.393 5.86668C12.393 5.84019 12.3878 5.81397 12.3776 5.7895C12.3675 5.76504 12.3527 5.7428 12.3339 5.72408C12.3152 5.70535 12.293 5.6905 12.2685 5.68036C12.244 5.67023 12.2178 5.66501 12.1913 5.66501Z" fill="#303030"/>
<path d="M12.1914 3.44666C11.9775 3.44666 11.7723 3.53164 11.621 3.68292C11.4698 3.8342 11.3848 4.03938 11.3848 4.25332C11.3848 4.46726 11.4698 4.67244 11.621 4.82372C11.7723 4.975 11.9775 5.05999 12.1914 5.05999C12.4054 5.05999 12.6106 4.975 12.7618 4.82372C12.9131 4.67244 12.9981 4.46726 12.9981 4.25332C12.9981 4.03938 12.9131 3.8342 12.7618 3.68292C12.6106 3.53164 12.4054 3.44666 12.1914 3.44666Z" fill="#303030"/>
</g>
<defs>
<clipPath id="clip0_1_12503">
<rect width="44" height="44" fill="white"/>
</clipPath>
</defs>
</svg>
