<svg width="44" height="44" viewBox="0 0 44 44" fill="none" xmlns="http://www.w3.org/2000/svg">
<path d="M15.2535 6.04999C15.664 6.05362 16.0664 5.93522 16.4094 5.7098C16.7525 5.48438 17.0209 5.16212 17.1805 4.7839C17.3401 4.40569 17.3838 3.98858 17.3059 3.58552C17.2281 3.18245 17.0322 2.81161 16.7432 2.52004C16.4543 2.22848 16.0852 2.02934 15.6828 1.94791C15.2805 1.86648 14.863 1.90642 14.4834 2.06266C14.1037 2.21891 13.7791 2.48442 13.5506 2.82549C13.3222 3.16656 13.2002 3.56781 13.2002 3.97832C13.2002 4.5246 13.4159 5.04878 13.8005 5.43677C14.185 5.82476 14.7073 6.04516 15.2535 6.04999Z" fill="#303030"/>
<path d="M15.345 7.33333C14.9345 7.33335 14.5333 7.45533 14.1922 7.68379C13.8511 7.91224 13.5856 8.23688 13.4294 8.6165C13.2731 8.99612 13.2332 9.4136 13.3146 9.81595C13.396 10.2183 13.5952 10.5874 13.8867 10.8764C14.1783 11.1654 14.5492 11.3612 14.9522 11.4391C15.3553 11.5169 15.7724 11.4733 16.1506 11.3137C16.5288 11.154 16.8511 10.8857 17.0765 10.5426C17.3019 10.1995 17.4203 9.79717 17.4167 9.38667C17.4167 9.11547 17.363 8.84696 17.2587 8.59663C17.1543 8.34631 17.0014 8.11913 16.8088 7.92822C16.6162 7.73731 16.3877 7.58645 16.1364 7.48434C15.8852 7.38224 15.6162 7.33091 15.345 7.33333Z" fill="#303030"/>
<path d="M20.2763 3.66666C20.4539 3.66666 20.6276 3.61398 20.7754 3.51527C20.9231 3.41656 21.0382 3.27626 21.1062 3.11211C21.1742 2.94796 21.192 2.76733 21.1573 2.59307C21.1227 2.41881 21.0371 2.25875 20.9115 2.13311C20.7858 2.00748 20.6258 1.92192 20.4515 1.88726C20.2773 1.85259 20.0966 1.87038 19.9325 1.93838C19.7683 2.00637 19.628 2.12151 19.5293 2.26924C19.4306 2.41697 19.3779 2.59066 19.3779 2.76833C19.3779 3.00658 19.4726 3.23508 19.641 3.40355C19.8095 3.57202 20.038 3.66666 20.2763 3.66666Z" fill="#303030"/>
<path d="M21.2121 10.6333C21.2157 10.4505 21.1645 10.2708 21.0652 10.1173C20.9659 9.96376 20.823 9.84345 20.6547 9.77181C20.4865 9.70017 20.3007 9.68047 20.1212 9.71526C19.9417 9.75004 19.7767 9.83771 19.6474 9.967C19.5181 10.0963 19.4304 10.2613 19.3956 10.4408C19.3609 10.6203 19.3806 10.8061 19.4522 10.9743C19.5238 11.1426 19.6442 11.2855 19.7977 11.3848C19.9512 11.4842 20.1309 11.5353 20.3137 11.5317C20.552 11.5317 20.7805 11.437 20.9489 11.2686C21.1174 11.1001 21.2121 10.8716 21.2121 10.6333Z" fill="#303030"/>
<path d="M21.9997 9.91833C22.101 9.91833 22.1831 9.83625 22.1831 9.735C22.1831 9.63375 22.101 9.55167 21.9997 9.55167C21.8985 9.55167 21.8164 9.63375 21.8164 9.735C21.8164 9.83625 21.8985 9.91833 21.9997 9.91833Z" fill="#303030"/>
<path d="M22.4767 6.72833C22.4731 6.32302 22.3496 5.92785 22.1218 5.5926C21.894 5.25735 21.572 4.99702 21.1965 4.84442C20.821 4.69181 20.4088 4.65376 20.0117 4.73504C19.6146 4.81633 19.2504 5.01332 18.9651 5.3012C18.6798 5.58908 18.486 5.95497 18.4083 6.35277C18.3305 6.75057 18.3722 7.16248 18.5282 7.53662C18.6841 7.91075 18.9473 8.23036 19.2845 8.45518C19.6218 8.68 20.018 8.79998 20.4234 8.8C20.6946 8.80001 20.9631 8.74629 21.2134 8.64196C21.4637 8.53763 21.6909 8.38474 21.8818 8.19212C22.0727 7.99951 22.2236 7.77098 22.3257 7.51974C22.4278 7.2685 22.4791 6.99952 22.4767 6.72833Z" fill="#303030"/>
<path d="M29.5534 0H14.4467C13.6202 0 12.8274 0.328362 12.2429 0.912851C11.6584 1.49734 11.3301 2.29008 11.3301 3.11667V40.8833C11.3301 41.7099 11.6584 42.5027 12.2429 43.0872C12.8274 43.6716 13.6202 44 14.4467 44H29.5534C30.38 44 31.1727 43.6716 31.7572 43.0872C32.3417 42.5027 32.6701 41.7099 32.6701 40.8833V3.11667C32.6701 2.29008 32.3417 1.49734 31.7572 0.912851C31.1727 0.328362 30.38 0 29.5534 0V0ZM23.0817 18.6267C23.0903 18.6628 23.0903 18.7005 23.0817 18.7367C23.1082 18.8821 23.1082 19.0312 23.0817 19.1767C22.9736 19.4498 22.7809 19.6811 22.5317 19.8367C22.4488 19.8921 22.3551 19.9296 22.2567 19.9467H22.0001V19.855C21.9912 19.7329 21.9912 19.6104 22.0001 19.4883C22.0562 19.3208 22.1433 19.1654 22.2567 19.03C22.3444 18.9144 22.4573 18.8204 22.5867 18.755C22.7275 18.6898 22.8751 18.6406 23.0267 18.6083L23.0817 18.6267ZM12.5217 9.46V3.96C12.5144 3.59667 12.5797 3.23553 12.7137 2.89774C12.8477 2.55994 13.0477 2.25228 13.3021 1.99277C13.5565 1.73325 13.8601 1.52711 14.1952 1.3864C14.5302 1.2457 14.89 1.17326 15.2534 1.17333H20.3317C21.0562 1.17333 21.751 1.46113 22.2633 1.97342C22.7756 2.48571 23.0634 3.18052 23.0634 3.905V9.49667C23.0634 10.2228 22.7762 10.9196 22.2644 11.4348C21.7527 11.95 21.0579 12.2418 20.3317 12.2467H15.2534C14.5272 12.2418 13.8325 11.95 13.3207 11.4348C12.8089 10.9196 12.5217 10.2228 12.5217 9.49667V9.46ZM24.2917 22.77C24.1986 23.0337 24.0756 23.2859 23.9251 23.5217C23.8299 23.6676 23.7193 23.8028 23.5951 23.925C23.5101 24.014 23.411 24.0883 23.3017 24.145C23.1872 24.1723 23.0679 24.1723 22.9534 24.145C22.8144 24.128 22.6785 24.091 22.5501 24.035L22.2201 23.9433C22.0871 23.9151 21.9497 23.9151 21.8167 23.9433L21.5417 24.0533H21.2667C21.1408 24.0885 21.0077 24.0885 20.8817 24.0533C20.7852 24.0093 20.698 23.9471 20.6251 23.87C20.4829 23.7275 20.3597 23.5673 20.2584 23.3933C20.0924 23.1193 19.9512 22.8309 19.8367 22.5317C19.8367 22.3483 19.7451 22.1833 19.7084 22C19.6989 21.829 19.6989 21.6576 19.7084 21.4867C19.7139 21.2491 19.7572 21.0139 19.8367 20.79C19.9188 20.5677 20.0505 20.3671 20.2217 20.2033C20.3766 20.0496 20.575 19.9471 20.7901 19.91C20.8922 19.8828 20.9996 19.8828 21.1017 19.91C21.2876 19.9227 21.4718 19.9534 21.6517 20.0017L22.0001 20.1667C22.0785 20.1847 22.16 20.1847 22.2384 20.1667L22.6417 20.0567C22.7511 20.0395 22.8624 20.0395 22.9717 20.0567H23.3017C23.4855 20.0467 23.6687 20.0846 23.8334 20.1667C23.9536 20.2381 24.0593 20.3313 24.1451 20.4417L24.0351 20.5333C23.9104 20.6483 23.7996 20.7775 23.7051 20.9183C23.6316 21.0556 23.582 21.2044 23.5584 21.3583C23.5204 21.6914 23.6123 22.0264 23.8151 22.2933C23.8986 22.4044 23.9974 22.5031 24.1084 22.5867L24.3101 22.6783L24.2917 22.77Z" fill="#303030"/>
</svg>
