<svg width="44" height="44" viewBox="0 0 44 44" fill="none" xmlns="http://www.w3.org/2000/svg">
<g clip-path="url(#clip0_1_12537)">
<path d="M42.9737 9.05667H39.582V34.9433H42.9737C43.2428 34.9434 43.5012 34.8377 43.6933 34.6491C43.8853 34.4606 43.9956 34.2041 44.0004 33.935V10.1017C44.0028 9.96531 43.978 9.82983 43.9275 9.70315C43.877 9.57647 43.8018 9.46111 43.7062 9.36383C43.6106 9.26654 43.4966 9.18927 43.3709 9.13654C43.2451 9.0838 43.1101 9.05665 42.9737 9.05667Z" fill="#303030"/>
<path d="M37.0517 6.91166H17.6183C17.3849 6.91166 17.1611 7.00437 16.9961 7.16941C16.831 7.33444 16.7383 7.55827 16.7383 7.79166V19.2867H0.971667C0.713965 19.2867 0.466817 19.389 0.284595 19.5713C0.102372 19.7535 0 20.0006 0 20.2583L0 23.8333C0 24.091 0.102372 24.3382 0.284595 24.5204C0.466817 24.7026 0.713965 24.805 0.971667 24.805H16.7383V36.3C16.7383 36.5334 16.831 36.7572 16.9961 36.9222C17.1611 37.0873 17.3849 37.18 17.6183 37.18H37.0517C37.1688 37.1824 37.2852 37.1615 37.3941 37.1183C37.503 37.0752 37.6021 37.0108 37.6858 36.9288C37.7695 36.8469 37.8359 36.749 37.8813 36.641C37.9267 36.5331 37.95 36.4171 37.95 36.3V7.79166C37.95 7.67454 37.9267 7.55859 37.8813 7.45061C37.8359 7.34263 37.7695 7.24479 37.6858 7.16283C37.6021 7.08087 37.503 7.01644 37.3941 6.97331C37.2852 6.93018 37.1688 6.90922 37.0517 6.91166ZM27.5 23.4117C27.2055 23.4153 26.9166 23.3313 26.67 23.1704C26.4234 23.0094 26.2302 22.7788 26.115 22.5078C25.9998 22.2368 25.9678 21.9376 26.023 21.6484C26.0782 21.3591 26.2182 21.0928 26.4251 20.8833C26.632 20.6737 26.8966 20.5305 27.1851 20.4717C27.4737 20.4129 27.7732 20.4412 28.0456 20.553C28.3181 20.6649 28.5511 20.8552 28.7151 21.0998C28.8791 21.3444 28.9666 21.6322 28.9667 21.9267C28.9765 22.1262 28.9461 22.3257 28.877 22.5132C28.808 22.7007 28.7018 22.8724 28.5649 23.0179C28.4279 23.1634 28.263 23.2797 28.0801 23.36C27.8971 23.4403 27.6998 23.4828 27.5 23.485V23.4117Z" fill="#303030"/>
</g>
<defs>
<clipPath id="clip0_1_12537">
<rect width="44" height="44" fill="white"/>
</clipPath>
</defs>
</svg>
