<svg width="26" height="26" viewBox="0 0 26 26" fill="none" xmlns="http://www.w3.org/2000/svg">
<path d="M25.1257 7.00164C25.0643 6.85316 24.9602 6.72625 24.8266 6.63694C24.693 6.54764 24.5359 6.49995 24.3752 6.49992H21.2846C20.8525 5.76479 20.2376 5.15397 19.4995 4.72685C18.7615 4.29973 17.9255 4.07083 17.0728 4.06242C16.4376 4.05409 15.8071 4.17289 15.2184 4.41185C14.6297 4.6508 14.0948 5.00508 13.6451 5.45383C13.1823 5.90804 12.8149 6.4502 12.5646 7.04845C12.3143 7.64669 12.1862 8.28893 12.1877 8.93742V9.55594C8.09878 8.47734 4.75432 5.15117 4.71878 5.11562C4.60977 5.00565 4.47161 4.92912 4.32057 4.89504C4.16952 4.86096 4.01189 4.87074 3.86622 4.92325C3.72055 4.97575 3.59292 5.06879 3.49835 5.1914C3.40379 5.31401 3.34623 5.46109 3.33245 5.61531C2.89471 10.469 4.3044 13.717 5.56682 15.5867C6.18237 16.511 6.9312 17.3393 7.78901 18.0445C6.24221 19.8249 3.80675 20.7603 3.78034 20.7705C3.66569 20.8134 3.56223 20.8817 3.47768 20.9702C3.39313 21.0588 3.32969 21.1653 3.29209 21.2818C3.25449 21.3983 3.2437 21.5218 3.26054 21.6431C3.27738 21.7644 3.3214 21.8802 3.38932 21.9821C3.46549 22.0959 3.77018 22.495 4.51464 22.8677C5.43479 23.3288 6.6505 23.5624 8.12518 23.5624C15.3026 23.5624 21.2999 18.0354 21.9123 10.924L24.95 7.88727C25.0636 7.77357 25.1409 7.62875 25.1722 7.47111C25.2035 7.31346 25.1873 7.15009 25.1257 7.00164ZM20.5554 9.98859C20.4161 10.1282 20.3324 10.3138 20.3198 10.5106C19.9064 16.9182 14.5521 21.9374 8.12518 21.9374C7.05268 21.9374 6.29706 21.7952 5.7669 21.6246C6.93589 20.9898 8.56596 19.898 9.61409 18.3259C9.67561 18.2334 9.71752 18.1293 9.73724 18.0201C9.75697 17.9108 9.75408 17.7986 9.72877 17.6905C9.70345 17.5824 9.65624 17.4806 9.59005 17.3914C9.52386 17.3023 9.4401 17.2276 9.34393 17.1721C9.2962 17.1447 4.88432 14.497 4.87518 7.42211C6.50018 8.74242 9.47089 10.7909 12.8651 11.3617C12.9814 11.3813 13.1006 11.3754 13.2144 11.3443C13.3282 11.3132 13.4339 11.2576 13.5241 11.1816C13.6142 11.1055 13.6868 11.0107 13.7366 10.9038C13.7864 10.7969 13.8124 10.6804 13.8127 10.5624V8.93742C13.8118 8.504 13.8976 8.07478 14.065 7.67501C14.2324 7.27524 14.4782 6.913 14.7877 6.60961C15.0844 6.31233 15.4377 6.07756 15.8267 5.91916C16.2157 5.76077 16.6325 5.68197 17.0525 5.68742C18.3383 5.70367 19.5398 6.48773 20.0425 7.63844C20.1059 7.78311 20.2101 7.90617 20.3423 7.99257C20.4745 8.07897 20.629 8.12497 20.787 8.12492H22.412L20.5554 9.98859Z" fill="black"/>
</svg>
