<svg width="40" height="40" viewBox="0 0 40 40" fill="none" xmlns="http://www.w3.org/2000/svg">
<g clip-path="url(#clip0_1_12734)">
<path d="M24.9993 3.75C24.309 3.75 23.7493 4.30964 23.7493 5C23.7493 5.69036 24.309 6.25 24.9993 6.25H26.666C30.578 6.25 33.7493 9.42132 33.7493 13.3333V15C33.7493 15.6904 34.309 16.25 34.9993 16.25C35.6897 16.25 36.2493 15.6904 36.2493 15V13.3333C36.2493 8.04061 31.9587 3.75 26.666 3.75H24.9993Z" fill="#FF510C"/>
<path d="M13.3327 3.75C8.03995 3.75 3.74935 8.04061 3.74935 13.3333V15C3.74935 15.6904 4.30899 16.25 4.99935 16.25C5.6897 16.25 6.24935 15.6904 6.24935 15V13.3333C6.24935 9.42132 9.42066 6.25 13.3327 6.25H14.9993C15.6897 6.25 16.2493 5.69036 16.2493 5C16.2493 4.30964 15.6897 3.75 14.9993 3.75H13.3327Z" fill="#FF510C"/>
<path d="M1.66602 22.0833C0.97566 22.0833 0.416016 22.643 0.416016 23.3333C0.416016 24.0237 0.97566 24.5833 1.66602 24.5833H3.82048C3.77441 24.7137 3.74935 24.8539 3.74935 25V26.6667C3.74935 31.9594 8.03995 36.25 13.3327 36.25H14.9993C15.6897 36.25 16.2493 35.6904 16.2493 35C16.2493 34.3096 15.6897 33.75 14.9993 33.75H13.3327C9.42066 33.75 6.24935 30.5787 6.24935 26.6667V25C6.24935 24.8539 6.22428 24.7137 6.17822 24.5833H33.8205C33.7744 24.7137 33.7493 24.8539 33.7493 25V26.6667C33.7493 30.5787 30.578 33.75 26.666 33.75H24.9993C24.309 33.75 23.7493 34.3096 23.7493 35C23.7493 35.6904 24.309 36.25 24.9993 36.25H26.666C31.9587 36.25 36.2493 31.9594 36.2493 26.6667V25C36.2493 24.8539 36.2243 24.7137 36.1782 24.5833H38.3327C39.023 24.5833 39.5827 24.0237 39.5827 23.3333C39.5827 22.643 39.023 22.0833 38.3327 22.0833H1.66602Z" fill="#FF510C"/>
</g>
<defs>
<clipPath id="clip0_1_12734">
<rect width="40" height="40" fill="white" transform="translate(-0.000976562)"/>
</clipPath>
</defs>
</svg>
