<svg width="44" height="44" viewBox="0 0 44 44" fill="none" xmlns="http://www.w3.org/2000/svg">
<path fill-rule="evenodd" clip-rule="evenodd" d="M41.1929 13.5011C42.3133 7.65906 37.1843 2.53009 31.3423 3.65051L14.569 6.86736C10.9228 7.56664 8.0068 10.3266 7.08037 13.9129C5.23071 21.0732 11.8711 27.6172 19.0011 25.5204C19.198 25.4625 19.3809 25.6454 19.323 25.8423C17.2263 32.9723 23.7702 39.6128 30.9305 37.7631C34.5169 36.8367 37.2768 33.9207 37.9761 30.2744L41.1929 13.5011ZM31.8602 6.35129C35.7934 5.59697 39.2465 9.05003 38.4921 12.9832L35.2753 29.7565C34.7779 32.3505 32.8084 34.4377 30.2427 35.1005C25.1147 36.4252 20.4774 31.6643 21.9613 26.6182C22.6333 24.3331 20.5103 22.2101 18.2253 22.8821C13.1792 24.366 8.41827 19.7288 9.74297 14.6008C10.4057 12.0351 12.493 10.0656 15.087 9.56813L31.8602 6.35129Z" fill="#FF510C"/>
<path d="M9.065 29.9449C9.60197 29.4079 9.60197 28.5373 9.065 28.0003C8.52803 27.4633 7.65742 27.4633 7.12045 28.0003L4.52773 30.593C3.99076 31.13 3.99076 32.0006 4.52773 32.5376C5.0647 33.0745 5.9353 33.0745 6.47227 32.5376L9.065 29.9449Z" fill="#FF510C"/>
<path d="M15.5468 31.2412C16.0838 30.7042 16.0838 29.8336 15.5468 29.2967C15.0098 28.7597 14.1392 28.7597 13.6023 29.2967L11.0095 31.8894C10.4726 32.4264 10.4726 33.297 11.0095 33.8339C11.5465 34.3709 12.4171 34.3709 12.9541 33.8339L15.5468 31.2412Z" fill="#FF510C"/>
<path d="M16.8432 37.723C17.3801 37.1861 17.3801 36.3155 16.8432 35.7785C16.3062 35.2415 15.4356 35.2415 14.8986 35.7785L12.3059 38.3712C11.7689 38.9082 11.7689 39.7788 12.3059 40.3158C12.8429 40.8527 13.7135 40.8527 14.2504 40.3158L16.8432 37.723Z" fill="#FF510C"/>
</svg>
