<svg width="46" height="46" viewBox="0 0 46 46" fill="none" xmlns="http://www.w3.org/2000/svg">
<path d="M14.4102 24.78L14.0802 24.4529C13.5766 23.9557 13.1767 23.365 12.9034 22.7146C12.6301 22.0641 12.4887 21.3667 12.4873 20.6622C12.4845 19.2392 13.052 17.8734 14.0652 16.8653C15.0783 15.8571 16.454 15.2892 17.8896 15.2864C19.3252 15.2836 20.7031 15.8462 21.7202 16.8504L23.0002 18.139L24.2802 16.8504C24.7772 16.3356 25.3728 15.9243 26.0323 15.6406C26.6918 15.357 27.4017 15.2067 28.1205 15.1986C28.8394 15.1905 29.5526 15.3247 30.2184 15.5935C30.8842 15.8622 31.4891 16.26 31.9978 16.7635C32.5064 17.267 32.9085 17.8661 33.1805 18.5257C33.4525 19.1853 33.5889 19.892 33.5816 20.6045C33.5744 21.317 33.4237 22.0209 33.1384 22.675C32.8531 23.329 32.4389 23.92 31.9202 24.4133L31.5902 24.7403L23.0002 33.2746L17.0702 27.3968L14.4102 24.78Z" stroke="black" stroke-width="1.91" stroke-miterlimit="10"/>
</svg>
