<svg width="46" height="46" viewBox="0 0 46 46" fill="none" xmlns="http://www.w3.org/2000/svg">
<path d="M18.009 26.9441L30.734 24.5817V17.4781H15.459" stroke="black" stroke-width="1.91" stroke-miterlimit="10"/>
<path d="M12.4326 15.1158H14.8243L17.9993 26.9441L16.6159 29.0008C16.4835 29.2022 16.414 29.4378 16.4159 29.6782C16.4159 29.998 16.5441 30.3047 16.7723 30.5309C17.0005 30.7571 17.3099 30.8841 17.6326 30.8841H27.5493" stroke="black" stroke-width="1.91" stroke-miterlimit="10"/>
<path d="M27.5495 32.4618C27.9867 32.4618 28.3411 32.1105 28.3411 31.6771C28.3411 31.2437 27.9867 30.8924 27.5495 30.8924C27.1122 30.8924 26.7578 31.2437 26.7578 31.6771C26.7578 32.1105 27.1122 32.4618 27.5495 32.4618Z" stroke="black" stroke-width="1.91" stroke-miterlimit="10"/>
<path d="M19.5915 32.4618C20.0287 32.4618 20.3831 32.1105 20.3831 31.6771C20.3831 31.2437 20.0287 30.8924 19.5915 30.8924C19.1542 30.8924 18.7998 31.2437 18.7998 31.6771C18.7998 32.1105 19.1542 32.4618 19.5915 32.4618Z" stroke="black" stroke-width="1.91" stroke-miterlimit="10"/>
</svg>
