<svg width="15" height="14" viewBox="0 0 15 14" fill="none" xmlns="http://www.w3.org/2000/svg">
<path d="M0.53125 2.50781C0.232422 2.50781 0 2.27539 0 1.97656V0.648438C0 0.382812 0.232422 0.117188 0.53125 0.117188H14.3438C14.6094 0.117188 14.875 0.382812 14.875 0.648438V1.97656C14.875 2.27539 14.6094 2.50781 14.3438 2.50781H0.53125ZM0.53125 7.82031C0.232422 7.82031 0 7.58789 0 7.28906V5.96094C0 5.69531 0.232422 5.42969 0.53125 5.42969H14.3438C14.6094 5.42969 14.875 5.69531 14.875 5.96094V7.28906C14.875 7.58789 14.6094 7.82031 14.3438 7.82031H0.53125ZM0.53125 13.1328C0.232422 13.1328 0 12.9004 0 12.6016V11.2734C0 11.0078 0.232422 10.7422 0.53125 10.7422H14.3438C14.6094 10.7422 14.875 11.0078 14.875 11.2734V12.6016C14.875 12.9004 14.6094 13.1328 14.3438 13.1328H0.53125Z" fill="white"/>
</svg>
