<svg width="38" height="38" viewBox="0 0 38 38" fill="none" xmlns="http://www.w3.org/2000/svg">
<path d="M24.7563 19.1798C24.1005 19.1798 23.5688 19.7115 23.5688 20.3673C23.5688 21.0231 24.1005 21.5548 24.7563 21.5548H29.0745C29.7304 21.5548 30.262 21.0231 30.262 20.3673C30.262 19.7115 29.7304 19.1798 29.0745 19.1798H24.7563Z" fill="#FF510C"/>
<path fill-rule="evenodd" clip-rule="evenodd" d="M31.1073 5.3475C31.2298 6.05044 31.2595 6.88579 31.2678 7.84152C31.4051 7.91316 31.5399 7.98943 31.6723 8.0706C32.8974 8.82129 33.9273 9.85125 34.678 11.0763C35.5045 12.425 35.8051 13.9882 35.9293 15.975C36.0196 17.4204 36.0196 19.1785 36.0196 21.3377V21.3824C36.0196 22.6206 36.0196 23.7235 36.0033 24.7052C35.9526 27.7577 35.755 29.916 34.678 31.6734C33.9273 32.8984 32.8974 33.9284 31.6723 34.6791C30.5025 35.3959 29.1756 35.7154 27.5549 35.8695C25.965 36.0207 23.9748 36.0207 21.4362 36.0207H16.5614C14.0228 36.0207 12.0325 36.0207 10.4426 35.8695C8.82198 35.7154 7.49499 35.3959 6.32519 34.6791C5.10017 33.9284 4.07021 32.8984 3.31952 31.6734C2.60267 30.5036 2.28318 29.1766 2.12909 27.556C1.97792 25.966 1.97792 23.9759 1.97793 21.4372L1.97806 20.6048C1.9572 19.8223 1.9636 18.9476 1.97051 18.0045C1.97415 17.5074 1.97793 16.9912 1.97793 16.4596L1.97793 16.3909C1.97792 13.6799 1.97791 11.5522 2.1534 9.8635C2.3324 8.14115 2.7046 6.73632 3.54405 5.53178C4.05122 4.80402 4.66653 4.16199 5.36844 3.63032C6.53744 2.74487 7.9054 2.35125 9.57363 2.16282C11.2012 1.97898 13.2487 1.97899 15.8423 1.97901L24.5001 1.97901C25.7645 1.97895 26.8362 1.9789 27.6905 2.09866C28.6031 2.22657 29.4406 2.51111 30.1107 3.2097C30.6923 3.81608 30.9678 4.54762 31.1073 5.3475ZM24.4166 4.35401C25.7873 4.35401 26.6908 4.35675 27.3609 4.45067C27.9915 4.53906 28.2368 4.68712 28.3967 4.85375C28.5445 5.00785 28.6778 5.24049 28.7676 5.75535C28.8276 6.09961 28.8603 6.52038 28.8776 7.05864C28.2241 6.93903 27.5188 6.86532 26.7506 6.81792C25.3097 6.72901 23.5587 6.72901 21.4104 6.72901H16.5614C14.0228 6.729 12.0326 6.72899 10.4426 6.88017C8.82198 7.03426 7.49499 7.35375 6.32519 8.0706C5.69457 8.45704 5.11565 8.91749 4.59991 9.44045C4.77369 8.28884 5.05829 7.51283 5.49256 6.88969C5.85923 6.36355 6.30163 5.90288 6.80245 5.52353C7.49552 4.99857 8.3867 4.68699 9.84019 4.52281C11.319 4.35578 13.2324 4.35401 15.9161 4.35401H24.4166ZM7.56612 10.0956C8.30004 9.64588 9.22063 9.38207 10.6674 9.2445C12.1319 9.10526 14.0093 9.10401 16.6238 9.10401H21.3738C23.5661 9.10401 25.2449 9.10452 26.6043 9.18841C27.9625 9.27221 28.912 9.43559 29.6605 9.71985C29.9408 9.82631 30.1945 9.95046 30.4314 10.0956C31.3369 10.6505 32.0981 11.4118 32.653 12.3172C33.0435 12.9544 33.2923 13.7289 33.4414 14.8616H24.7563C21.7156 14.8616 19.2507 17.3266 19.2507 20.3673C19.2507 23.408 21.7156 25.873 24.7563 25.873H33.5961C33.5046 28.1852 33.2522 29.4546 32.653 30.4325C32.0981 31.3379 31.3369 32.0992 30.4314 32.6541C29.6975 33.1038 28.7769 33.3676 27.3301 33.5052C25.8657 33.6444 23.9882 33.6457 21.3738 33.6457H16.6238C14.0093 33.6457 12.1319 33.6444 10.6674 33.5052C9.22063 33.3676 8.30004 33.1038 7.56612 32.6541C6.66067 32.0992 5.8994 31.3379 5.34454 30.4325C4.8948 29.6986 4.63099 28.778 4.49343 27.3312C4.35419 25.8668 4.35293 23.9893 4.35293 21.3748C4.35293 18.7604 4.35419 16.8829 4.49343 15.4185C4.63099 13.9717 4.8948 13.0511 5.34454 12.3172C5.8994 11.4118 6.66067 10.6505 7.56612 10.0956ZM21.6257 20.3673C21.6257 18.6383 23.0273 17.2366 24.7563 17.2366H33.6091C33.6443 18.3828 33.6446 19.7352 33.6446 21.3748C33.6446 22.141 33.6446 22.8458 33.6409 23.498H24.7563C23.0273 23.498 21.6257 22.0963 21.6257 20.3673Z" fill="#FF510C"/>
</svg>
